<mxfile host="app.diagrams.net" modified="2024-04-09T07:40:48.609Z" agent="Mozilla/5.0 (Windows NT 10.0; Win64; x64) AppleWebKit/537.36 (KHTML, like Gecko) Chrome/123.0.0.0 Safari/537.36" etag="NIj_FM1umRrtH7VcZXXi" version="24.2.3" type="device">
  <diagram name="Страница — 1" id="LLeM5GBIKbtz3mXmBaMd">
    <mxGraphModel dx="2550" dy="833" grid="1" gridSize="10" guides="1" tooltips="1" connect="1" arrows="1" fold="1" page="1" pageScale="1" pageWidth="827" pageHeight="1169" math="0" shadow="0">
      <root>
        <mxCell id="0" />
        <mxCell id="1" parent="0" />
        <mxCell id="I9K231y7793zYV9sP2NC-1" value="Пользователь" style="swimlane;whiteSpace=wrap" parent="1" vertex="1">
          <mxGeometry x="-310" y="78" width="500" height="760" as="geometry" />
        </mxCell>
        <mxCell id="I9K231y7793zYV9sP2NC-2" value="" style="ellipse;shape=startState;fillColor=#000000;strokeColor=#ff0000;strokeWidth=1;" parent="I9K231y7793zYV9sP2NC-1" vertex="1">
          <mxGeometry x="225.5" y="42" width="30" height="30" as="geometry" />
        </mxCell>
        <mxCell id="I9K231y7793zYV9sP2NC-3" value="" style="edgeStyle=elbowEdgeStyle;elbow=horizontal;verticalAlign=bottom;endArrow=open;endSize=8;strokeColor=#FF0000;endFill=1;rounded=0" parent="I9K231y7793zYV9sP2NC-1" source="I9K231y7793zYV9sP2NC-2" target="I9K231y7793zYV9sP2NC-4" edge="1">
          <mxGeometry x="40" y="20" as="geometry">
            <mxPoint x="271" y="112" as="targetPoint" />
          </mxGeometry>
        </mxCell>
        <mxCell id="I9K231y7793zYV9sP2NC-4" value="Запустить программу" style="rounded=1;whiteSpace=wrap;html=1;" parent="I9K231y7793zYV9sP2NC-1" vertex="1">
          <mxGeometry x="175.5" y="112" width="130" height="60" as="geometry" />
        </mxCell>
        <mxCell id="I9K231y7793zYV9sP2NC-5" value="" style="whiteSpace=wrap;strokeColor=#b85450;fillColor=#f8cecc;rotation=90;" parent="I9K231y7793zYV9sP2NC-1" vertex="1">
          <mxGeometry x="300" y="57.5" width="5" height="375" as="geometry" />
        </mxCell>
        <mxCell id="I9K231y7793zYV9sP2NC-6" value="" style="endArrow=open;strokeColor=#FF0000;endFill=1;rounded=0;exitX=0.5;exitY=1;exitDx=0;exitDy=0;" parent="I9K231y7793zYV9sP2NC-1" edge="1" source="I9K231y7793zYV9sP2NC-4">
          <mxGeometry relative="1" as="geometry">
            <mxPoint x="239.99999999999994" y="160" as="sourcePoint" />
            <mxPoint x="240.42000000000002" y="240" as="targetPoint" />
          </mxGeometry>
        </mxCell>
        <mxCell id="I9K231y7793zYV9sP2NC-7" value="" style="endArrow=open;strokeColor=#FF0000;endFill=1;rounded=0;exitX=0.567;exitY=0.877;exitDx=0;exitDy=0;exitPerimeter=0;entryX=0.401;entryY=0.006;entryDx=0;entryDy=0;entryPerimeter=0;" parent="I9K231y7793zYV9sP2NC-1" source="I9K231y7793zYV9sP2NC-5" edge="1" target="I9K231y7793zYV9sP2NC-8">
          <mxGeometry relative="1" as="geometry">
            <mxPoint x="118.5" y="273.00499999999994" as="sourcePoint" />
            <mxPoint x="121" y="338.29" as="targetPoint" />
          </mxGeometry>
        </mxCell>
        <mxCell id="I9K231y7793zYV9sP2NC-8" value="Запросить успеваемость всех школьников" style="rounded=0;whiteSpace=wrap;html=1;" parent="I9K231y7793zYV9sP2NC-1" vertex="1">
          <mxGeometry x="112.75" y="342" width="120" height="60" as="geometry" />
        </mxCell>
        <mxCell id="I9K231y7793zYV9sP2NC-9" value="" style="endArrow=open;strokeColor=#FF0000;endFill=1;rounded=0;exitX=0.955;exitY=0.656;exitDx=0;exitDy=0;exitPerimeter=0;entryX=0.462;entryY=-0.056;entryDx=0;entryDy=0;entryPerimeter=0;" parent="I9K231y7793zYV9sP2NC-1" source="I9K231y7793zYV9sP2NC-5" target="I9K231y7793zYV9sP2NC-10" edge="1">
          <mxGeometry relative="1" as="geometry">
            <mxPoint x="200" y="262" as="sourcePoint" />
            <mxPoint x="202" y="422" as="targetPoint" />
          </mxGeometry>
        </mxCell>
        <mxCell id="I9K231y7793zYV9sP2NC-10" value="Запросить&amp;nbsp; информацию о школьниках, вес которых которых меньше 40 кг" style="rounded=0;whiteSpace=wrap;html=1;" parent="I9K231y7793zYV9sP2NC-1" vertex="1">
          <mxGeometry x="182.75" y="413" width="134.5" height="78" as="geometry" />
        </mxCell>
        <mxCell id="I9K231y7793zYV9sP2NC-11" value="" style="endArrow=open;strokeColor=#FF0000;endFill=1;rounded=0;exitX=0.94;exitY=0.397;exitDx=0;exitDy=0;exitPerimeter=0;entryX=0.5;entryY=0;entryDx=0;entryDy=0;" parent="I9K231y7793zYV9sP2NC-1" source="I9K231y7793zYV9sP2NC-5" edge="1" target="I9K231y7793zYV9sP2NC-12">
          <mxGeometry relative="1" as="geometry">
            <mxPoint x="280" y="262" as="sourcePoint" />
            <mxPoint x="281.5" y="341.29" as="targetPoint" />
          </mxGeometry>
        </mxCell>
        <mxCell id="I9K231y7793zYV9sP2NC-12" value="Запросить средний балл всех школьников школ г. Минска" style="rounded=0;whiteSpace=wrap;html=1;" parent="I9K231y7793zYV9sP2NC-1" vertex="1">
          <mxGeometry x="280" y="342" width="120" height="60" as="geometry" />
        </mxCell>
        <mxCell id="I9K231y7793zYV9sP2NC-13" value="" style="endArrow=open;strokeColor=#FF0000;endFill=1;rounded=0;exitX=0.38;exitY=0.185;exitDx=0;exitDy=0;exitPerimeter=0;entryX=0.5;entryY=0;entryDx=0;entryDy=0;" parent="I9K231y7793zYV9sP2NC-1" source="I9K231y7793zYV9sP2NC-5" edge="1" target="I9K231y7793zYV9sP2NC-14">
          <mxGeometry relative="1" as="geometry">
            <mxPoint x="384.5" y="290" as="sourcePoint" />
            <mxPoint x="361.5" y="422" as="targetPoint" />
          </mxGeometry>
        </mxCell>
        <mxCell id="I9K231y7793zYV9sP2NC-14" value="Запросить информацию об ученике" style="rounded=0;whiteSpace=wrap;html=1;" parent="I9K231y7793zYV9sP2NC-1" vertex="1">
          <mxGeometry x="360" y="421" width="120" height="62" as="geometry" />
        </mxCell>
        <mxCell id="I9K231y7793zYV9sP2NC-15" value="" style="endArrow=open;strokeColor=#FF0000;endFill=1;rounded=0;exitX=0.366;exitY=1.039;exitDx=0;exitDy=0;exitPerimeter=0;" parent="I9K231y7793zYV9sP2NC-1" edge="1" source="I9K231y7793zYV9sP2NC-8">
          <mxGeometry relative="1" as="geometry">
            <mxPoint x="119.5" y="402" as="sourcePoint" />
            <mxPoint x="157" y="522" as="targetPoint" />
          </mxGeometry>
        </mxCell>
        <mxCell id="I9K231y7793zYV9sP2NC-16" value="" style="endArrow=open;strokeColor=#FF0000;endFill=1;rounded=0;exitX=0.5;exitY=1;exitDx=0;exitDy=0;" parent="I9K231y7793zYV9sP2NC-1" edge="1" source="I9K231y7793zYV9sP2NC-12">
          <mxGeometry relative="1" as="geometry">
            <mxPoint x="279.5" y="402" as="sourcePoint" />
            <mxPoint x="340" y="522" as="targetPoint" />
          </mxGeometry>
        </mxCell>
        <mxCell id="I9K231y7793zYV9sP2NC-17" value="" style="edgeStyle=elbowEdgeStyle;elbow=horizontal;verticalAlign=bottom;endArrow=open;endSize=8;strokeColor=#FF0000;endFill=1;rounded=0;exitX=0.5;exitY=1;exitDx=0;exitDy=0;entryX=-0.367;entryY=0.639;entryDx=0;entryDy=0;entryPerimeter=0;" parent="I9K231y7793zYV9sP2NC-1" edge="1" target="I9K231y7793zYV9sP2NC-19" source="I9K231y7793zYV9sP2NC-10">
          <mxGeometry x="-404.5" y="-108" as="geometry">
            <mxPoint x="199.5" y="522" as="targetPoint" />
            <mxPoint x="200.5" y="482" as="sourcePoint" />
          </mxGeometry>
        </mxCell>
        <mxCell id="I9K231y7793zYV9sP2NC-18" value="" style="edgeStyle=elbowEdgeStyle;elbow=horizontal;verticalAlign=bottom;endArrow=open;endSize=8;strokeColor=#FF0000;endFill=1;rounded=0;exitX=0.5;exitY=1;exitDx=0;exitDy=0;" parent="I9K231y7793zYV9sP2NC-1" edge="1" source="I9K231y7793zYV9sP2NC-14">
          <mxGeometry x="-404.5" y="-108" as="geometry">
            <mxPoint x="420" y="522" as="targetPoint" />
            <mxPoint x="360.5" y="482" as="sourcePoint" />
          </mxGeometry>
        </mxCell>
        <mxCell id="I9K231y7793zYV9sP2NC-19" value="" style="whiteSpace=wrap;strokeColor=#b85450;fillColor=#f8cecc;rotation=90;" parent="I9K231y7793zYV9sP2NC-1" vertex="1">
          <mxGeometry x="299" y="340.5" width="5" height="373" as="geometry" />
        </mxCell>
        <mxCell id="I9K231y7793zYV9sP2NC-22" value="Получить рузультат" style="rounded=1;whiteSpace=wrap;html=1;" parent="I9K231y7793zYV9sP2NC-1" vertex="1">
          <mxGeometry x="232.75" y="630" width="120" height="60" as="geometry" />
        </mxCell>
        <mxCell id="I9K231y7793zYV9sP2NC-23" value="Система" style="swimlane;whiteSpace=wrap" parent="1" vertex="1">
          <mxGeometry x="190" y="78" width="294.5" height="760" as="geometry" />
        </mxCell>
        <mxCell id="I9K231y7793zYV9sP2NC-24" value="Выполнить запрос" style="rounded=1;whiteSpace=wrap;html=1;" parent="I9K231y7793zYV9sP2NC-23" vertex="1">
          <mxGeometry x="80" y="522" width="120" height="60" as="geometry" />
        </mxCell>
        <mxCell id="I9K231y7793zYV9sP2NC-25" value="" style="edgeStyle=elbowEdgeStyle;elbow=horizontal;verticalAlign=bottom;endArrow=open;endSize=8;strokeColor=#FF0000;endFill=1;rounded=0" parent="I9K231y7793zYV9sP2NC-23" target="I9K231y7793zYV9sP2NC-26" edge="1">
          <mxGeometry x="-554.5" y="-148" as="geometry">
            <mxPoint x="139.5" y="622" as="targetPoint" />
            <mxPoint x="140.5" y="582" as="sourcePoint" />
          </mxGeometry>
        </mxCell>
        <mxCell id="I9K231y7793zYV9sP2NC-26" value="Вернуть результат" style="rounded=1;whiteSpace=wrap;html=1;" parent="I9K231y7793zYV9sP2NC-23" vertex="1">
          <mxGeometry x="80" y="630" width="120" height="60" as="geometry" />
        </mxCell>
        <mxCell id="I9K231y7793zYV9sP2NC-20" value="" style="edgeStyle=elbowEdgeStyle;elbow=horizontal;verticalAlign=bottom;endArrow=open;endSize=8;strokeColor=#FF0000;endFill=1;rounded=0;entryX=0;entryY=0.5;entryDx=0;entryDy=0;exitX=0.978;exitY=0.569;exitDx=0;exitDy=0;exitPerimeter=0;" parent="1" source="I9K231y7793zYV9sP2NC-19" target="I9K231y7793zYV9sP2NC-24" edge="1">
          <mxGeometry x="-1159" y="-158" as="geometry">
            <mxPoint x="-404.5" y="630" as="targetPoint" />
            <mxPoint x="-34" y="610" as="sourcePoint" />
            <Array as="points">
              <mxPoint x="-34" y="650" />
            </Array>
          </mxGeometry>
        </mxCell>
        <mxCell id="I9K231y7793zYV9sP2NC-21" value="" style="edgeStyle=elbowEdgeStyle;elbow=horizontal;verticalAlign=bottom;endArrow=open;endSize=8;strokeColor=#FF0000;endFill=1;rounded=0;exitX=0;exitY=0.5;exitDx=0;exitDy=0;entryX=1;entryY=0.5;entryDx=0;entryDy=0;" parent="1" source="I9K231y7793zYV9sP2NC-26" target="I9K231y7793zYV9sP2NC-22" edge="1">
          <mxGeometry x="-1309" y="-110" as="geometry">
            <mxPoint x="110" y="770" as="targetPoint" />
            <mxPoint x="230" y="680" as="sourcePoint" />
            <Array as="points">
              <mxPoint x="70.5" y="708" />
            </Array>
          </mxGeometry>
        </mxCell>
      </root>
    </mxGraphModel>
  </diagram>
</mxfile>
